<?xml version="1.0" encoding="UTF-8"?><svg id="uuid-c685ea89-eeb3-4d15-b058-d799fba76bd8" xmlns="http://www.w3.org/2000/svg" viewBox="0 0 15.64 15.7"><path d="M.5,4.06c0,.77.24,1.52.7,2.13l2.24,3.96.04.08h0c.13.17.32.27.52.27s.36-.09.48-.23h0l.03-.03.08-.15,2.2-3.88c.46-.61.71-1.37.71-2.15-.04-1.97-1.65-3.55-3.62-3.56C1.95.5.5,2.1.5,4.06" fill="none" stroke="#d20f39" stroke-linecap="round" stroke-linejoin="round"/><path d="M5.5,4c0,.83-.67,1.5-1.5,1.5s-1.5-.67-1.5-1.5.67-1.5,1.5-1.5,1.5.67,1.5,1.5" fill="none" stroke="#d20f39" stroke-linecap="round" stroke-linejoin="round"/><path d="M9.44,3.53l4.01.07c.5,0,.95.22,1.35.56.34.34.56.84.56,1.35v8.02c0,.5-.22.95-.56,1.35-.34.34-.84.56-1.35.56H5.43c-.5,0-.95-.22-1.35-.56-.34-.34-.44-.83-.44-1.33,0,0,5.8-10.01,5.8-10.01Z" fill="none" stroke="#639" stroke-miterlimit="106.55" stroke-width=".56"/><path d="M13.22,14.51c-.38,0-.67-.11-.88-.33-.2-.22-.31-.54-.32-.96h.82c0,.37.13.55.39.55.13,0,.22-.04.27-.12.05-.08.08-.21.08-.39,0-.14-.04-.26-.1-.35-.09-.11-.21-.2-.35-.25l-.3-.15c-.27-.13-.47-.28-.59-.46-.12-.18-.18-.43-.18-.75,0-.36.1-.65.31-.87.21-.22.5-.33.87-.33s.63.11.83.33c.2.22.3.53.31.94h-.79c0-.13-.02-.27-.08-.39-.04-.09-.13-.13-.26-.13-.23,0-.35.14-.35.41,0,.14.03.25.08.33.08.09.18.16.3.2l.29.13c.3.14.52.31.65.51.13.2.2.47.2.81,0,.41-.11.72-.32.94-.21.22-.51.33-.89.33ZM10.58,14.51c-.38,0-.67-.11-.88-.33-.2-.22-.31-.54-.32-.96h.82c0,.37.13.55.39.55.13,0,.22-.04.27-.12.05-.08.08-.21.08-.39,0-.14-.03-.26-.1-.35-.09-.11-.21-.2-.35-.25l-.3-.15c-.27-.13-.47-.28-.59-.46-.12-.18-.18-.43-.18-.75,0-.36.1-.65.31-.87.21-.22.5-.33.87-.33s.63.11.82.33c.2.22.3.53.31.94h-.79c0-.13-.02-.27-.08-.39-.04-.09-.13-.13-.26-.13-.23,0-.35.14-.35.41,0,.14.03.25.08.33.08.09.18.16.3.2l.29.13c.3.14.52.31.65.51.13.2.2.47.2.81,0,.41-.11.72-.32.94s-.51.33-.89.33ZM7.82,14.51c-.37,0-.67-.1-.89-.3-.22-.2-.33-.5-.33-.9v-1.98c0-.4.12-.7.35-.91.23-.2.54-.31.92-.31s.66.11.88.32c.22.21.33.52.33.94v.16h-.87v-.15c0-.16-.04-.28-.1-.36-.03-.04-.07-.07-.11-.09s-.09-.03-.14-.03c-.14,0-.24.05-.3.15-.06.14-.09.28-.08.43v1.72c0,.36.13.54.38.55.12,0,.21-.04.27-.13.07-.11.1-.23.09-.36v-.13h.87v.13c0,.28-.05.51-.16.7-.1.18-.26.33-.45.42-.2.1-.42.14-.64.14Z" fill="#4c4f69"/></svg>