<?xml version="1.0" encoding="UTF-8"?>
<svg id="uuid-3ffd5d34-d5c2-4eb5-af06-f15df50f2daf" data-name="Capa_1" xmlns="http://www.w3.org/2000/svg" viewBox="0 0 10.36 10.36">
  <path d="M.28.28h8.23c.42,0,.79.19,1.12.46.28.28.46.7.46,1.12v6.65c0,.42-.19.79-.46,1.12-.28.28-.7.46-1.12.46H1.86c-.42,0-.79-.19-1.12-.46-.28-.28-.46-.7-.46-1.12,0,0,0-8.23,0-8.23Z" fill="none" stroke="#639" stroke-miterlimit="106.55" stroke-width=".56"/>
  <path d="M8.32,9.33c-.32,0-.56-.09-.73-.28-.17-.19-.25-.45-.26-.8h.68c0,.31.11.46.32.46.11,0,.18-.03.23-.1.04-.07.07-.17.07-.32,0-.12-.03-.21-.09-.29-.08-.09-.18-.16-.29-.21l-.25-.12c-.22-.11-.39-.23-.49-.38-.1-.15-.15-.35-.15-.62,0-.3.09-.54.26-.72.18-.18.42-.28.72-.28s.52.09.68.27c.16.18.25.44.26.78h-.65c0-.11-.02-.22-.07-.32-.04-.07-.11-.11-.22-.11-.19,0-.29.11-.29.34,0,.12.02.21.07.27.07.08.15.13.25.17l.24.11c.25.11.43.25.54.42.11.17.17.39.17.67,0,.34-.09.6-.27.78-.18.18-.42.27-.74.27ZM6.12,9.33c-.32,0-.56-.09-.73-.28-.17-.19-.25-.45-.26-.8h.68c0,.31.11.46.32.46.11,0,.18-.03.23-.1.04-.07.07-.17.07-.32,0-.12-.03-.21-.08-.29-.08-.09-.18-.16-.29-.21l-.25-.12c-.22-.11-.39-.23-.49-.38-.1-.15-.15-.35-.15-.62,0-.3.09-.54.26-.72.18-.18.42-.28.72-.28s.52.09.68.27c.17.18.25.44.26.78h-.65c0-.11-.02-.22-.07-.32-.04-.07-.11-.11-.22-.11-.19,0-.29.11-.29.34,0,.12.02.21.07.27.07.08.15.13.25.17l.24.11c.25.11.43.25.54.42.11.17.17.39.17.67,0,.34-.09.6-.27.78s-.42.27-.74.27ZM3.84,9.33c-.31,0-.55-.08-.74-.25-.18-.17-.27-.42-.27-.75v-1.64c0-.33.1-.58.29-.75.19-.17.45-.26.76-.26s.55.09.73.26c.18.17.27.43.27.78v.13h-.72v-.13c0-.13-.03-.23-.09-.3-.02-.03-.06-.06-.09-.08s-.08-.03-.12-.03c-.12,0-.2.04-.25.12-.05.11-.07.23-.07.36v1.43c0,.3.1.45.31.45.1,0,.17-.04.22-.11.06-.09.08-.19.08-.3v-.11h.72v.11c0,.23-.04.42-.14.58-.09.15-.22.27-.37.35-.17.08-.35.12-.53.12Z" fill="#4c4f69"/>
</svg>